<svg width="30" height="39" viewBox="0 0 30 39" fill="none" xmlns="http://www.w3.org/2000/svg">
<path d="M29.2347 22.2504C28.7994 16.5832 26.1608 13.0317 23.833 9.89776C21.6775 6.9964 19.8159 4.49092 19.8159 0.794976C19.8159 0.498101 19.6497 0.226757 19.386 0.0907141C19.1216 -0.0461453 18.8039 -0.0237313 18.5635 0.15098C15.0675 2.6526 12.1505 6.86889 11.1316 10.8918C10.4242 13.6926 10.3306 16.8413 10.3175 18.9208C7.08896 18.2313 6.35761 13.402 6.34989 13.3494C6.31352 13.0989 6.16048 12.8809 5.93783 12.7619C5.71287 12.6444 5.44843 12.6358 5.22036 12.7487C5.05106 12.8307 1.06485 14.8561 0.832914 22.943C0.81666 23.2121 0.815918 23.4819 0.815918 23.7517C0.815918 31.6083 7.20875 38.0008 15.0659 38.0008C15.0768 38.0015 15.0883 38.0031 15.0976 38.0008C15.1007 38.0008 15.1038 38.0008 15.1076 38.0008C22.9455 37.9783 29.3159 31.5944 29.3159 23.7517C29.3159 23.3567 29.2347 22.2504 29.2347 22.2504ZM15.0659 36.4175C12.4466 36.4175 10.3159 34.1478 10.3159 31.3579C10.3159 31.2628 10.3152 31.1669 10.3221 31.0494C10.3538 29.8728 10.5772 29.0696 10.8223 28.5354C11.2816 29.5219 12.1026 30.4287 13.4362 30.4287C13.8738 30.4287 14.2279 30.0746 14.2279 29.6371C14.2279 28.51 14.2511 27.2097 14.5318 26.0361C14.7815 24.9956 15.3783 23.8885 16.1344 23.0011C16.4707 24.153 17.1264 25.0852 17.7665 25.9951C18.6827 27.2969 19.6297 28.6429 19.796 30.9381C19.806 31.0741 19.8161 31.211 19.8161 31.3579C19.8159 34.1478 17.6852 36.4175 15.0659 36.4175Z" fill="white"/>
</svg>
